{"title":"Det.Kungliga.Brollopet.[2010].DvdRip.XviD-KnÃƒÂ£","uid":6354589,"size":2559254528,"categoryP":"video","categoryS":"tv_shows","magnet":"?xt=urn:btih:c9305bc66bbb437204e021b710974cfef59d0095&amp;dn=Det.Kungliga.Brollopet.%5B2010%5D.DvdRip.XviD-Kn%C3%83%C2%A3&amp;tr=udp%3A%2F%2Ftracker.openbittorrent.com%3A80&amp;tr=udp%3A%2F%2Fopen.demonii.com%3A1337&amp;tr=udp%3A%2F%2Ftracker.coppersurfer.tk%3A6969&amp;tr=udp%3A%2F%2Fexodus.desync.com%3A6969","seeders":0,"leechers":1,"uploader":"Jon.Pson","files":1,"time":1304109674,"description":"The rip is 1h and 44 min long, and ends with Victorias speach to the people. The missing parts are the dinner, the weddingcake and the dance.\n\nGeneral\nComplete name                    : H:\\TV-Shows\\Det.Kungliga.Brollopet.[2010].DvdRip.XviD-KnÃƒÂ£\\Det.Kungliga.Brollopet.[2010].Swedish.DvdRip.XviD-KnÃƒÂ£.avi\nFormat                           : AVI\nFormat/Info                      : Audio Video Interleave\nFormat profile                   : OpenDML\nFile size                        : 2.38 GiB\nDuration                         : 1h 44mn\nOverall bit rate                 : 3 265 Kbps\nWriting application              : VirtualDubMod 1.5.4.1 (build 2178/release)\nWriting library                  : VirtualDubMod build 2178/release\n\nVideo\nID                               : 0\nFormat                           : MPEG-4 Visual\nFormat profile                   : Advanced Simple@L5\nFormat settings, BVOP            : Yes\nFormat settings, QPel            : No\nFormat settings, GMC             : No warppoints\nFormat settings, Matrix          : Default (H.263)\nMuxing mode                      : Packed bitstream\nCodec ID                         : XVID\nCodec ID/Hint                    : XviD\nDuration                         : 1h 44mn\nBit rate                         : 2 872 Kbps\nWidth                            : 608 pixels\nHeight                           : 336 pixels\nDisplay aspect ratio             : 16:9\nFrame rate                       : 25.000 fps\nColor space                      : YUV\nChroma subsampling               : 4:2:0\nBit depth                        : 8 bits\nScan type                        : Progressive\nBits/(Pixel*Frame)               : 0.562\nStream size                      : 2.10 GiB (88%)\nWriting library                  : XviD 58\n\nAudio\nID                               : 1\nFormat                           : AC-3\nFormat/Info                      : Audio Coding 3\nMode extension                   : CM (complete main)\nCodec ID                         : 2000\nDuration                         : 1h 44mn\nBit rate mode                    : Constant\nBit rate                         : 384 Kbps\nChannel(s)                       : 2 channels\nChannel positions                : Front: L R\nSampling rate                    : 48.0 KHz\nBit depth                        : 16 bits\nStream size                      : 287 MiB (12%)\nAlignment                        : Split accross interleaves\nInterleave, duration             : 80 ms (2.00 video frames)\nInterleave, preload duration     : 500 ms\n\n","torrent":{"xt":"urn:btih:c9305bc66bbb437204e021b710974cfef59d0095","amp;dn":"Det.Kungliga.Brollopet.%5B2010%5D.DvdRip.XviD-Kn%C3%83%C2%A3","amp;tr":["udp%3A%2F%2Ftracker.openbittorrent.com%3A80","udp%3A%2F%2Fopen.demonii.com%3A1337","udp%3A%2F%2Ftracker.coppersurfer.tk%3A6969","udp%3A%2F%2Fexodus.desync.com%3A6969"],"infoHash":"c9305bc66bbb437204e021b710974cfef59d0095","infoHashBuffer":{"type":"Buffer","data":[201,48,91,198,107,187,67,114,4,224,33,183,16,151,76,254,245,157,0,149]},"announce":[],"urlList":[]}}